<?xml version="1.0" encoding="utf-8"?>
<!-- Generator: Adobe Illustrator 22.0.1, SVG Export Plug-In . SVG Version: 6.00 Build 0)  -->
<svg version="1.1" id="圖層_1" xmlns="http://www.w3.org/2000/svg" xmlns:xlink="http://www.w3.org/1999/xlink" x="0px" y="0px"
	 viewBox="0 0 200 100.959" enable-background="new 0 0 200 100.959" xml:space="preserve">
<g>
	<g>
		<path fill="#004280" d="M163.213,37.402h-35.554l8.032-22.784h35.555L163.213,37.402z M130.578,35.336h31.171l6.577-18.652
			h-31.172L130.578,35.336z"/>
		<path fill="#6482B1" d="M190.262,27.625h-45.728L154.274,0H200L190.262,27.625z M147.452,25.558h41.345l8.284-23.492h-41.345
			L147.452,25.558z"/>
		<g>
			<rect y="9.499" fill="#004280" width="114.791" height="23.361"/>
			<path fill="#FFFFFF" d="M25.888,17.151v12.271h2.674c4.212,0,6.712-2.609,6.712-6.031c0-3.42-2.303-6.241-7.249-6.241H25.888z
				 M28.642,26.918V19.54c2.688-0.15,3.889,1.746,3.889,3.906C32.532,25.51,31.273,27.087,28.642,26.918z"/>
			<polygon fill="#FFFFFF" points="63.163,17.151 60.397,17.151 60.397,23.965 52.853,16.942 52.853,29.422 55.612,29.422 
				55.612,23.025 63.163,29.924 			"/>
			<polygon fill="#FFFFFF" points="64.342,19.536 67.71,19.536 67.71,29.422 70.676,29.422 70.676,19.536 74.008,19.536 
				74.008,17.151 64.342,17.151 			"/>
			<polygon fill="#FFFFFF" points="75.092,29.422 75.092,17.151 82.323,17.151 82.323,19.483 77.873,19.483 77.873,22.097 
				81.879,22.097 81.879,24.458 77.873,24.458 77.873,27.071 82.323,27.071 82.323,29.422 			"/>
			<polygon fill="#FFFFFF" points="101.554,17.151 101.554,22.113 96.808,22.113 96.808,17.151 94.042,17.151 94.042,29.422 
				96.808,29.422 96.808,24.458 101.554,24.458 101.554,29.422 104.317,29.422 104.317,17.151 			"/>
			<polygon fill="#FFFFFF" points="33.94,17.151 40.221,29.763 41.734,26.559 37.151,17.151 			"/>
			<polygon fill="#FFFFFF" points="46.446,16.728 44.925,19.915 46.22,23.191 43.352,23.191 42.387,25.22 47.011,25.22 
				48.758,29.422 51.964,29.422 			"/>
			<path fill="#FFFFFF" d="M82.92,23.316c0,4.021,3.028,6.257,6.769,6.257c1.473,0,2.292-0.42,2.904-0.738v-2.91
				c-0.569,0.755-1.704,1.255-2.852,1.255c-2.234,0-4.015-1.511-4.015-3.941c0-2.408,1.971-3.849,4.015-3.849
				c1.149,0,2.283,0.505,2.852,1.259V17.95c-0.524-0.459-1.464-0.859-2.937-0.859C85.921,17.091,82.92,19.746,82.92,23.316z"/>
			<path fill="#FFFFFF" d="M16.318,24.615l1.767-4.337l1.762,4.337H16.318z M25.218,29.422l-7.033-15.325l-7.094,15.325h3.472
				l1.002-2.559h5.03l1.012,2.559H25.218z"/>
		</g>
		<g>
			<path fill="#004280" d="M1.252,44.591H8.92l2.83,23.187h0.091l3.378-23.187h7.121l3.651,23.187h0.092l2.739-23.187h7.394
				l-5.66,32.589h-8.49l-3.332-23.141h-0.091l-3.15,23.141h-8.49L1.252,44.591z"/>
			<path fill="#004280" d="M37.404,44.591h7.669v32.589h-7.669V44.591z"/>
			<path fill="#004280" d="M54.705,67.231v1.141c0,2.465,0.685,4.336,3.332,4.336c2.693,0,3.469-2.008,3.469-3.879
				c0-7.03-14.013-3.104-14.013-15.292c0-5.203,2.784-9.585,10.681-9.585c7.668,0,10.407,3.88,10.407,8.9v0.777h-7.394
				c0-1.552-0.183-2.694-0.639-3.424c-0.457-0.776-1.187-1.141-2.328-1.141c-1.917,0-3.058,1.141-3.058,3.514
				c0,6.801,14.013,3.378,14.013,14.88c0,7.395-4.108,10.361-11.137,10.361c-5.568,0-10.726-1.689-10.726-8.49v-2.099H54.705z"/>
			<path fill="#004280" d="M71.274,44.591h18.851v6.207H78.942v6.527h10.498v6.207H78.942v7.44h11.685v6.207H71.274V44.591z"/>
			<path fill="#004280" d="M91.679,60.886h13.785v6.207H91.679V60.886z"/>
			<path fill="#004280" d="M107.791,44.591h11.868c8.079,0,9.631,5.842,9.631,9.904c0,5.842-2.785,9.951-10.453,9.951h-3.377v12.734
				h-7.669V44.591z M115.46,58.787h2.099c3.059,0,3.789-1.917,3.789-4.108c0-2.511-0.821-4.428-3.925-4.428h-1.963V58.787z"/>
			<path fill="#004280" d="M129.429,60.065c0.045-3.378,1.05-5.432,2.784-6.619c1.735-1.187,3.834-1.598,6.893-1.598
				c6.07,0,8.764,2.1,8.764,7.304v12.689c0,1.872,0,4.245,0.867,5.34h-7.121c-0.273-0.867-0.365-1.872-0.411-2.829h-0.091
				c-1.004,2.19-3.332,3.468-5.797,3.468c-4.154,0-6.572-2.191-6.572-7.531c0-2.876,1.186-5.294,3.012-6.299
				c1.826-1.004,4.564-1.461,6.618-2.009c2.237-0.593,2.648-0.959,2.648-2.829c0-1.507-0.685-2.465-2.329-2.465
				c-2.054,0-2.647,1.233-2.693,3.378H129.429z M138.009,72.707c1.552,0,2.967-0.912,2.967-3.377c0-2.054,0.046-3.332,0.046-4.336
				c-2.329,1.233-3.333,1.278-4.017,1.825c-0.776,0.594-1.141,1.37-1.141,2.739C135.865,71.521,136.64,72.707,138.009,72.707z"/>
			<path fill="#004280" d="M150.655,60.065c0.046-3.378,1.05-5.432,2.784-6.619c1.735-1.187,3.834-1.598,6.893-1.598
				c6.07,0,8.764,2.1,8.764,7.304v12.689c0,1.872,0,4.245,0.867,5.34h-7.121c-0.273-0.867-0.365-1.872-0.411-2.829h-0.091
				c-1.004,2.19-3.332,3.468-5.797,3.468c-4.154,0-6.572-2.191-6.572-7.531c0-2.876,1.186-5.294,3.012-6.299
				c1.826-1.004,4.564-1.461,6.618-2.009c2.237-0.593,2.648-0.959,2.648-2.829c0-1.507-0.685-2.465-2.329-2.465
				c-2.054,0-2.647,1.233-2.693,3.378H150.655z M159.235,72.707c1.552,0,2.967-0.912,2.967-3.377c0-2.054,0.046-3.332,0.046-4.336
				c-2.329,1.233-3.333,1.278-4.017,1.825c-0.776,0.594-1.141,1.37-1.141,2.739C157.091,71.521,157.866,72.707,159.235,72.707z"/>
			<path fill="#004280" d="M178.682,67.231v1.141c0,2.465,0.685,4.336,3.332,4.336c2.693,0,3.469-2.008,3.469-3.879
				c0-7.03-14.013-3.104-14.013-15.292c0-5.203,2.784-9.585,10.681-9.585c7.668,0,10.407,3.88,10.407,8.9v0.777h-7.395
				c0-1.552-0.183-2.694-0.639-3.424c-0.457-0.776-1.187-1.141-2.328-1.141c-1.917,0-3.059,1.141-3.059,3.514
				c0,6.801,14.013,3.378,14.013,14.88c0,7.395-4.107,10.361-11.137,10.361c-5.568,0-10.726-1.689-10.726-8.49v-2.099H178.682z"/>
		</g>
	</g>
	<g>
		<path fill="#6482B1" d="M13.032,98.367h-1.327l-1.044-3.033h-3.85l-0.928,3.033H4.797l3.371-10.375h1.47L13.032,98.367z
			 M10.385,94.361l-1.607-4.986l-1.605,4.986H10.385z"/>
		<path fill="#6482B1" d="M15.605,98.367h-1.299V87.992h1.299V98.367z"/>
		<path fill="#6482B1" d="M20.764,98.58c-1.054,0-1.876-0.39-2.466-1.172c-0.591-0.781-0.885-1.75-0.885-2.906
			c0-1.223,0.332-2.199,0.995-2.93c0.664-0.73,1.49-1.095,2.478-1.095c1.059,0,1.893,0.384,2.504,1.152
			c0.611,0.769,0.915,1.728,0.915,2.88c0,1.198-0.329,2.175-0.988,2.933C22.66,98.201,21.808,98.58,20.764,98.58z M20.856,97.592
			c0.608,0,1.117-0.252,1.527-0.753c0.411-0.502,0.616-1.282,0.616-2.34c0-1.064-0.215-1.836-0.646-2.315
			c-0.431-0.478-0.935-0.718-1.513-0.718c-0.593,0-1.095,0.242-1.505,0.726c-0.411,0.484-0.616,1.25-0.616,2.3
			c0,1.11,0.205,1.904,0.616,2.383C19.746,97.352,20.253,97.592,20.856,97.592z"/>
		<path fill="#6482B1" d="M28.171,98.367h-1.3v-9.235h-2.972v-1.14h7.251v1.14h-2.98V98.367z"/>
		<path fill="#6482B1" d="M35.19,95.623l1.171-0.265c0.471,1.414,1.492,2.12,3.063,2.12c0.821,0,1.439-0.174,1.854-0.523
			c0.416-0.348,0.624-0.814,0.624-1.399c0-0.443-0.158-0.799-0.475-1.068c-0.317-0.269-0.683-0.455-1.098-0.557l-2.076-0.512
			c-0.537-0.137-0.977-0.303-1.319-0.499c-0.342-0.195-0.632-0.496-0.87-0.901c-0.238-0.406-0.357-0.87-0.357-1.393
			c0-0.868,0.327-1.559,0.981-2.074c0.654-0.515,1.492-0.773,2.516-0.773c1.885,0,3.124,0.854,3.717,2.562l-1.178,0.35
			c-0.137-0.608-0.458-1.068-0.965-1.38c-0.507-0.312-1.046-0.468-1.619-0.468c-0.567,0-1.073,0.15-1.516,0.451
			c-0.444,0.3-0.665,0.725-0.665,1.275c0,0.769,0.562,1.288,1.686,1.558l1.94,0.454c1.773,0.426,2.66,1.382,2.66,2.866
			c0,0.898-0.333,1.644-0.999,2.24c-0.667,0.595-1.605,0.893-2.816,0.893C37.298,98.58,35.879,97.594,35.19,95.623z"/>
		<path fill="#6482B1" d="M47.76,98.58c-1.054,0-1.876-0.39-2.466-1.172c-0.591-0.781-0.885-1.75-0.885-2.906
			c0-1.223,0.332-2.199,0.995-2.93c0.664-0.73,1.49-1.095,2.478-1.095c1.059,0,1.893,0.384,2.504,1.152
			c0.61,0.769,0.915,1.728,0.915,2.88c0,1.198-0.329,2.175-0.988,2.933C49.655,98.201,48.804,98.58,47.76,98.58z M47.851,97.592
			c0.608,0,1.117-0.252,1.527-0.753c0.411-0.502,0.616-1.282,0.616-2.34c0-1.064-0.215-1.836-0.646-2.315
			c-0.431-0.478-0.935-0.718-1.513-0.718c-0.593,0-1.095,0.242-1.505,0.726c-0.411,0.484-0.616,1.25-0.616,2.3
			c0,1.11,0.205,1.904,0.616,2.383C46.741,97.352,47.248,97.592,47.851,97.592z"/>
		<path fill="#6482B1" d="M54.211,98.367h-1.193V87.992h1.193V98.367z"/>
		<path fill="#6482B1" d="M62.563,98.367h-1.079V96.9c-0.547,1.12-1.361,1.68-2.444,1.68c-0.784,0-1.4-0.258-1.848-0.776
			c-0.448-0.518-0.671-1.253-0.671-2.207v-4.907h1.193v4.902c0,0.76,0.158,1.283,0.475,1.57c0.317,0.287,0.665,0.43,1.045,0.43
			c0.385,0,0.733-0.109,1.045-0.327c0.311-0.218,0.571-0.529,0.779-0.931c0.208-0.403,0.312-0.842,0.312-1.319v-4.324h1.193V98.367z
			"/>
		<path fill="#6482B1" d="M68.353,97.554v0.943c-0.421,0.055-0.786,0.083-1.095,0.083c-1.485,0-2.227-0.777-2.227-2.329v-4.626
			H63.67v-0.934h1.361l0.053-1.931l1.11-0.106v2.037h1.718v0.934h-1.718v4.825c0,0.792,0.41,1.188,1.231,1.188
			C67.699,97.638,68.008,97.61,68.353,97.554z"/>
		<path fill="#6482B1" d="M70.814,87.992v1.33h-1.284v-1.33H70.814z M70.776,90.691v7.676h-1.193v-7.676H70.776z"/>
		<path fill="#6482B1" d="M75.828,98.58c-1.054,0-1.876-0.39-2.466-1.172c-0.591-0.781-0.885-1.75-0.885-2.906
			c0-1.223,0.332-2.199,0.995-2.93c0.664-0.73,1.49-1.095,2.478-1.095c1.059,0,1.893,0.384,2.504,1.152
			c0.611,0.769,0.915,1.728,0.915,2.88c0,1.198-0.329,2.175-0.988,2.933C77.723,98.201,76.872,98.58,75.828,98.58z M75.92,97.592
			c0.608,0,1.117-0.252,1.527-0.753c0.411-0.502,0.616-1.282,0.616-2.34c0-1.064-0.215-1.836-0.646-2.315
			c-0.431-0.478-0.935-0.718-1.513-0.718c-0.593,0-1.095,0.242-1.505,0.726c-0.411,0.484-0.616,1.25-0.616,2.3
			c0,1.11,0.205,1.904,0.616,2.383C74.809,97.352,75.316,97.592,75.92,97.592z"/>
		<path fill="#6482B1" d="M87.136,98.367h-1.117v-4.932c0-0.71-0.154-1.209-0.464-1.498c-0.309-0.289-0.684-0.433-1.125-0.433
			c-0.608,0-1.119,0.243-1.532,0.729c-0.413,0.487-0.619,1.128-0.619,1.923v4.211h-1.193v-7.676h1.11v1.414
			c0.623-1.084,1.432-1.627,2.425-1.627c0.573,0,1.061,0.148,1.464,0.444c0.403,0.296,0.679,0.629,0.828,0.999
			c0.15,0.371,0.224,1.039,0.224,2.007V98.367z"/>
		<path fill="#6482B1" d="M88.412,96.376l1.14-0.236c0.253,0.968,1.054,1.452,2.402,1.452c0.497,0,0.917-0.111,1.262-0.334
			c0.345-0.223,0.517-0.536,0.517-0.942c0-0.602-0.439-0.984-1.316-1.145l-1.618-0.308c-0.634-0.121-1.138-0.359-1.513-0.715
			c-0.375-0.354-0.563-0.823-0.563-1.406c0-0.643,0.256-1.181,0.768-1.615c0.512-0.433,1.201-0.65,2.068-0.65
			c1.667,0,2.696,0.651,3.086,1.953l-1.095,0.236c-0.314-0.801-0.961-1.202-1.938-1.202c-0.486,0-0.885,0.101-1.197,0.3
			c-0.312,0.2-0.468,0.479-0.468,0.839c0,0.566,0.398,0.923,1.194,1.07l1.497,0.269c1.566,0.284,2.349,1.043,2.349,2.276
			c0,0.705-0.291,1.275-0.874,1.709c-0.583,0.434-1.358,0.651-2.326,0.651C89.967,98.58,88.842,97.845,88.412,96.376z"/>
		<path fill="#6482B1" d="M108.246,97.356v1.011c-0.426,0.071-0.773,0.106-1.04,0.106c-0.196,0-0.407-0.035-0.627-0.105
			c-0.223-0.07-0.548-0.322-0.974-0.759c-0.757,0.637-1.613,0.955-2.568,0.955c-0.968,0-1.749-0.277-2.341-0.832
			c-0.592-0.555-0.888-1.225-0.888-2.011c0-0.627,0.209-1.206,0.626-1.737c0.418-0.532,1.036-0.93,1.851-1.198
			c-0.61-0.889-0.918-1.619-0.918-2.19c0-0.542,0.194-1.013,0.583-1.411c0.389-0.398,0.906-0.596,1.553-0.596
			c0.656,0,1.195,0.185,1.615,0.555c0.418,0.37,0.629,0.869,0.629,1.496c0,1.021-0.672,1.849-2.018,2.486l2.02,3.068
			c0.655-0.831,1.086-1.855,1.296-3.071l1.024,0.218c-0.285,1.383-0.871,2.58-1.76,3.592c0.304,0.329,0.645,0.494,1.024,0.494
			C107.506,97.427,107.81,97.404,108.246,97.356z M102.758,93.509c-0.664,0.286-1.123,0.593-1.373,0.922
			c-0.251,0.329-0.376,0.742-0.376,1.237c0,0.677,0.217,1.176,0.649,1.499c0.434,0.322,0.939,0.484,1.514,0.484
			c0.73,0,1.359-0.253,1.89-0.757L102.758,93.509z M103.236,92.442c0.755-0.417,1.21-0.753,1.365-1.006
			c0.155-0.254,0.232-0.498,0.232-0.732c0-0.333-0.118-0.621-0.358-0.862c-0.238-0.242-0.542-0.362-0.912-0.362
			c-0.337,0-0.616,0.106-0.835,0.32c-0.221,0.213-0.331,0.453-0.331,0.72C102.398,90.933,102.677,91.574,103.236,92.442z"/>
		<path fill="#6482B1" d="M123.801,98.367h-1.262v-9.06l-3.369,9.06h-0.881l-3.404-9.06v9.06h-1.103V87.992h1.924l3.135,8.298
			l3.06-8.298h1.9V98.367z"/>
		<path fill="#6482B1" d="M132.213,98.367h-1.178c-0.045-0.243-0.091-0.704-0.137-1.383c-0.527,1.064-1.424,1.596-2.691,1.596
			c-0.862,0-1.523-0.228-1.984-0.686c-0.461-0.456-0.691-1.004-0.691-1.644c0-0.777,0.329-1.415,0.988-1.914
			c0.659-0.5,1.779-0.749,3.36-0.749c0.213,0,0.552,0.01,1.019,0.03c0-0.608-0.047-1.048-0.14-1.319
			c-0.094-0.271-0.293-0.488-0.597-0.65c-0.304-0.163-0.704-0.243-1.201-0.243c-1.211,0-1.915,0.461-2.113,1.383l-1.102-0.19
			c0.268-1.414,1.398-2.12,3.39-2.12c1.058,0,1.81,0.234,2.253,0.703c0.443,0.469,0.665,1.281,0.665,2.436v3.261
			C132.054,97.42,132.107,97.917,132.213,98.367z M130.898,94.529c-0.486-0.03-0.857-0.045-1.11-0.045
			c-0.943,0-1.675,0.155-2.197,0.465c-0.522,0.31-0.782,0.762-0.782,1.356c0,0.377,0.14,0.696,0.421,0.961
			c0.282,0.264,0.688,0.396,1.22,0.396c0.719,0,1.311-0.261,1.775-0.784c0.464-0.524,0.695-1.138,0.695-1.845
			C130.921,94.89,130.914,94.722,130.898,94.529z"/>
		<path fill="#6482B1" d="M135.557,98.367h-1.194v-7.676h1.05v1.793c0.37-0.846,0.741-1.394,1.113-1.645
			c0.372-0.251,0.753-0.377,1.143-0.377c0.122,0,0.279,0.011,0.472,0.031v1.14h-0.243c-0.659,0-1.206,0.246-1.642,0.738
			c-0.436,0.491-0.669,1.138-0.699,1.938V98.367z"/>
		<path fill="#6482B1" d="M145.679,98.367h-1.236l-2.244-4.285l-1.664,1.914v2.371h-1.194V87.992h1.194v6.651l3.566-3.952h1.275
			l-2.398,2.696L145.679,98.367z"/>
		<path fill="#6482B1" d="M151.789,96.079l1.11,0.229c-0.202,0.656-0.597,1.199-1.185,1.629c-0.588,0.429-1.28,0.644-2.075,0.644
			c-1.049,0-1.898-0.369-2.547-1.107c-0.649-0.738-0.973-1.705-0.973-2.903c0-1.222,0.337-2.21,1.011-2.963
			c0.674-0.753,1.52-1.13,2.539-1.13c1.003,0,1.811,0.347,2.421,1.041c0.611,0.694,0.924,1.733,0.939,3.117h-5.579
			c0,1.16,0.243,1.943,0.73,2.349c0.486,0.405,1,0.608,1.542,0.608C150.699,97.592,151.389,97.088,151.789,96.079z M151.721,93.746
			c-0.011-0.43-0.081-0.813-0.213-1.147c-0.132-0.334-0.354-0.62-0.669-0.855c-0.314-0.235-0.691-0.353-1.132-0.353
			c-0.594,0-1.096,0.213-1.51,0.638c-0.412,0.426-0.645,0.998-0.695,1.718H151.721z"/>
		<path fill="#6482B1" d="M158.15,97.554v0.943c-0.421,0.055-0.785,0.083-1.095,0.083c-1.484,0-2.227-0.777-2.227-2.329v-4.626
			h-1.36v-0.934h1.36l0.053-1.931l1.11-0.106v2.037h1.718v0.934h-1.718v4.825c0,0.792,0.411,1.188,1.232,1.188
			C157.496,97.638,157.805,97.61,158.15,97.554z"/>
		<path fill="#6482B1" d="M160.574,100.959h-1.194V90.691h1.08v1.489c0.541-1.135,1.349-1.702,2.422-1.702
			c0.905,0,1.636,0.38,2.193,1.138c0.557,0.758,0.836,1.718,0.836,2.88c0,1.253-0.287,2.246-0.859,2.982
			c-0.573,0.735-1.308,1.103-2.205,1.103c-0.962,0-1.721-0.459-2.272-1.376V100.959z M160.574,93.419v2.166
			c0.076,0.581,0.321,1.06,0.737,1.439c0.415,0.379,0.849,0.568,1.3,0.568c0.522,0,0.984-0.229,1.387-0.685
			c0.403-0.456,0.604-1.244,0.604-2.364c0-0.968-0.182-1.714-0.547-2.239c-0.365-0.525-0.848-0.787-1.451-0.787
			c-0.476,0-0.903,0.185-1.281,0.555C160.944,92.444,160.695,92.892,160.574,93.419z"/>
		<path fill="#6482B1" d="M168.811,98.367h-1.194V87.992h1.194V98.367z"/>
		<path fill="#6482B1" d="M177.125,98.367h-1.178c-0.046-0.243-0.091-0.704-0.137-1.383c-0.527,1.064-1.424,1.596-2.691,1.596
			c-0.862,0-1.523-0.228-1.984-0.686c-0.461-0.456-0.691-1.004-0.691-1.644c0-0.777,0.329-1.415,0.988-1.914
			c0.659-0.5,1.779-0.749,3.36-0.749c0.213,0,0.552,0.01,1.019,0.03c0-0.608-0.047-1.048-0.14-1.319
			c-0.094-0.271-0.293-0.488-0.597-0.65c-0.304-0.163-0.704-0.243-1.201-0.243c-1.211,0-1.915,0.461-2.113,1.383l-1.102-0.19
			c0.268-1.414,1.398-2.12,3.39-2.12c1.058,0,1.81,0.234,2.253,0.703c0.443,0.469,0.665,1.281,0.665,2.436v3.261
			C176.965,97.42,177.018,97.917,177.125,98.367z M175.81,94.529c-0.486-0.03-0.857-0.045-1.11-0.045
			c-0.943,0-1.675,0.155-2.197,0.465c-0.522,0.31-0.782,0.762-0.782,1.356c0,0.377,0.14,0.696,0.421,0.961
			c0.282,0.264,0.688,0.396,1.22,0.396c0.719,0,1.311-0.261,1.775-0.784c0.464-0.524,0.695-1.138,0.695-1.845
			C175.832,94.89,175.825,94.722,175.81,94.529z"/>
		<path fill="#6482B1" d="M183.813,95.676l1.08,0.191c-0.152,0.848-0.489,1.512-1.011,1.993c-0.523,0.48-1.174,0.72-1.954,0.72
			c-1.059,0-1.866-0.39-2.421-1.172c-0.555-0.781-0.833-1.734-0.833-2.86c0-1.167,0.293-2.137,0.878-2.911
			c0.585-0.774,1.382-1.16,2.391-1.16c0.836,0,1.506,0.25,2.01,0.748c0.504,0.5,0.817,1.144,0.939,1.935l-1.08,0.205
			c-0.202-1.266-0.814-1.901-1.836-1.901c-0.657,0-1.163,0.281-1.517,0.84c-0.354,0.56-0.531,1.286-0.531,2.178
			c0,0.983,0.175,1.747,0.527,2.292c0.351,0.544,0.846,0.817,1.483,0.817C182.925,97.592,183.549,96.953,183.813,95.676z"/>
		<path fill="#6482B1" d="M191.518,96.079l1.11,0.229c-0.202,0.656-0.597,1.199-1.185,1.629c-0.588,0.429-1.28,0.644-2.075,0.644
			c-1.049,0-1.898-0.369-2.547-1.107c-0.649-0.738-0.973-1.705-0.973-2.903c0-1.222,0.337-2.21,1.011-2.963
			c0.674-0.753,1.52-1.13,2.539-1.13c1.003,0,1.811,0.347,2.421,1.041c0.611,0.694,0.924,1.733,0.939,3.117h-5.579
			c0,1.16,0.243,1.943,0.73,2.349c0.486,0.405,1,0.608,1.542,0.608C190.429,97.592,191.118,97.088,191.518,96.079z M191.45,93.746
			c-0.011-0.43-0.081-0.813-0.213-1.147c-0.132-0.334-0.354-0.62-0.669-0.855c-0.314-0.235-0.691-0.353-1.132-0.353
			c-0.594,0-1.096,0.213-1.51,0.638c-0.412,0.426-0.645,0.998-0.695,1.718H191.45z"/>
	</g>
</g>
</svg>
