<?xml version="1.0" encoding="utf-8"?>
<!-- Generator: Adobe Illustrator 16.0.0, SVG Export Plug-In . SVG Version: 6.00 Build 0)  -->
<!DOCTYPE svg PUBLIC "-//W3C//DTD SVG 1.1//EN" "http://www.w3.org/Graphics/SVG/1.1/DTD/svg11.dtd">
<svg version="1.1" id="圖層_1" xmlns="http://www.w3.org/2000/svg" xmlns:xlink="http://www.w3.org/1999/xlink" x="0px" y="0px"
	 width="512px" height="128px" viewBox="0 0 512 128" enable-background="new 0 0 512 128" xml:space="preserve">
<g>
	<path fill="none" d="M193.361,51.757"/>
	<path fill="#004889" d="M25.939,26.736h8.83l3.258,26.7h0.105l3.891-26.7h8.199l4.205,26.7h0.104l3.154-26.7h8.516l-6.52,37.527
		h-9.775L46.07,37.616h-0.105l-3.627,26.647h-9.775L25.939,26.736z"/>
	<path fill="#004889" d="M67.563,26.736h8.83v37.527h-8.83V26.736z"/>
	<path fill="#004889" d="M87.482,52.806v1.313c0,2.839,0.789,4.994,3.836,4.994c3.104,0,3.996-2.313,3.996-4.467
		c0-8.094-16.137-3.574-16.137-17.608C79.178,31.045,82.385,26,91.477,26c8.83,0,11.984,4.467,11.984,10.25v0.894h-8.516
		c0-1.788-0.209-3.101-0.734-3.942c-0.525-0.894-1.367-1.314-2.682-1.314c-2.207,0-3.521,1.314-3.521,4.047
		c0,7.832,16.137,3.89,16.137,17.135c0,8.514-4.73,11.931-12.826,11.931c-6.41,0-12.35-1.945-12.35-9.776v-2.418H87.482z"/>
	<path fill="#004889" d="M106.559,26.736h21.707v7.147h-12.877V41.4h12.09v7.148h-12.09v8.568h13.455v7.147h-22.285V26.736z"/>
	<path fill="#004889" d="M130.051,45.5h15.873v7.148h-15.873V45.5z"/>
	<path fill="#004889" d="M148.602,26.736h13.666c9.303,0,11.09,6.728,11.09,11.405c0,6.728-3.205,11.458-12.035,11.458h-3.891
		v14.665h-8.83V26.736z M157.432,43.083h2.418c3.521,0,4.363-2.208,4.363-4.731c0-2.891-0.947-5.098-4.52-5.098h-2.262V43.083z"/>
	<path fill="#004889" d="M173.514,44.554c0.053-3.89,1.211-6.254,3.207-7.621c1.996-1.367,4.414-1.84,7.938-1.84
		c6.99,0,10.09,2.418,10.09,8.41v14.612c0,2.155,0,4.888,1,6.149h-8.199c-0.316-0.998-0.422-2.154-0.475-3.259h-0.104
		c-1.156,2.523-3.838,3.995-6.676,3.995c-4.783,0-7.568-2.523-7.568-8.673c0-3.311,1.365-6.096,3.469-7.253
		c2.102-1.156,5.256-1.682,7.621-2.313c2.576-0.683,3.049-1.104,3.049-3.259c0-1.734-0.789-2.838-2.682-2.838
		c-2.365,0-3.049,1.419-3.1,3.89H173.514z M183.396,59.113c1.785,0,3.416-1.051,3.416-3.889c0-2.366,0.053-3.837,0.053-4.993
		c-2.682,1.419-3.838,1.471-4.625,2.103c-0.895,0.683-1.314,1.576-1.314,3.153C180.926,57.746,181.818,59.113,183.396,59.113z"/>
	<path fill="#004889" d="M197.953,44.554c0.053-3.89,1.209-6.254,3.205-7.621c1.998-1.367,4.416-1.84,7.938-1.84
		c6.99,0,10.092,2.418,10.092,8.41v14.612c0,2.155,0,4.888,0.998,6.149h-8.199c-0.314-0.998-0.42-2.154-0.473-3.259h-0.105
		c-1.156,2.523-3.836,3.995-6.674,3.995c-4.783,0-7.57-2.523-7.57-8.673c0-3.311,1.367-6.096,3.469-7.253
		c2.104-1.156,5.258-1.682,7.621-2.313c2.576-0.683,3.049-1.104,3.049-3.259c0-1.734-0.787-2.838-2.68-2.838
		c-2.365,0-3.049,1.419-3.102,3.89H197.953z M207.834,59.113c1.787,0,3.416-1.051,3.416-3.889c0-2.366,0.053-3.837,0.053-4.993
		c-2.68,1.419-3.836,1.471-4.625,2.103c-0.895,0.683-1.314,1.576-1.314,3.153C205.363,57.746,206.258,59.113,207.834,59.113z"/>
	<path fill="#004889" d="M230.221,52.806v1.313c0,2.839,0.789,4.994,3.838,4.994c3.102,0,3.994-2.313,3.994-4.467
		c0-8.094-16.135-3.574-16.135-17.608c0-5.992,3.205-11.038,12.299-11.038c8.83,0,11.984,4.467,11.984,10.25v0.894h-8.516
		c0-1.788-0.211-3.101-0.736-3.942c-0.525-0.894-1.367-1.314-2.68-1.314c-2.207,0-3.521,1.314-3.521,4.047
		c0,7.832,16.137,3.89,16.137,17.135c0,8.514-4.73,11.931-12.826,11.931c-6.412,0-12.352-1.945-12.352-9.776v-2.418H230.221z"/>
	<path fill="#004889" d="M258.129,26h7.148l-11.984,39h-7.148L258.129,26z"/>
	<path fill="#008BD5" d="M267.691,26.736h13.088c8.725,0,12.457,4.52,12.457,17.554c0,13.614-1.734,19.973-13.35,19.973h-12.195
		V26.736z M276.521,57.746h2.365c4.102,0,5.52-1.629,5.52-12.877c0-9.145-0.736-11.616-5.414-11.616h-2.471V57.746z"/>
	<path fill="#008BD5" d="M296.02,44.554c0.053-3.89,1.209-6.254,3.205-7.621c1.998-1.367,4.416-1.84,7.938-1.84
		c6.99,0,10.092,2.418,10.092,8.41v14.612c0,2.155,0,4.888,0.998,6.149h-8.199c-0.314-0.998-0.42-2.154-0.473-3.259h-0.105
		c-1.156,2.523-3.836,3.995-6.674,3.995c-4.783,0-7.57-2.523-7.57-8.673c0-3.311,1.367-6.096,3.469-7.253
		c2.104-1.156,5.258-1.682,7.621-2.313c2.576-0.683,3.049-1.104,3.049-3.259c0-1.734-0.787-2.838-2.68-2.838
		c-2.365,0-3.049,1.419-3.102,3.89H296.02z M305.9,59.113c1.787,0,3.416-1.051,3.416-3.889c0-2.366,0.053-3.837,0.053-4.993
		c-2.68,1.419-3.836,1.471-4.625,2.103c-0.895,0.683-1.314,1.576-1.314,3.153C303.43,57.746,304.324,59.113,305.9,59.113z"/>
	<path fill="#008BD5" d="M327.658,55.224c0.053,1.261,0.158,2.365,0.578,3.206c0.473,0.789,1.262,1.314,2.629,1.314
		c1.996,0,3.047-1.261,3.047-2.891c0-1.314-0.629-2.576-3.258-3.469c-6.99-2.365-10.354-3.732-10.354-9.723
		c0-5.677,3.994-8.568,10.826-8.568c7.99,0,10.303,3.89,10.303,7.99v0.945h-7.568v-0.525c0-2.471-1-3.154-2.787-3.154
		c-2.26,0-2.891,1.104-2.891,2.629c0,5.045,13.613,1.681,13.613,12.719c0,5.729-3.836,9.303-10.881,9.303
		c-7.621,0-10.826-2.839-10.826-8.515v-1.261H327.658z"/>
	<path fill="#008BD5" d="M344.16,26.736h8.514v12.193h0.105c1.367-2.786,3.627-3.837,6.518-3.837c4.836,0,7.412,2.418,7.412,7.885
		v21.286h-8.516V44.869c0-2.049-0.895-3.259-2.471-3.259c-1.629,0-3.049,1.262-3.049,4.047v18.606h-8.514V26.736z"/>
	<path fill="#008BD5" d="M370.123,26.736h8.514v12.193h0.105c1.418-3.048,3.994-3.837,6.359-3.837c6.99,0,8.252,6.361,8.252,15.191
		c0,10.617-3.049,14.717-8.777,14.717c-3.783,0-5.52-2.261-6.15-4.205h-0.104v3.469h-8.199V26.736z M381.527,58.797
		c3.207,0,3.313-4.362,3.313-8.935c0-5.15-0.158-8.567-3.26-8.567c-2.891,0-3.102,3.889-3.102,8.936
		C378.479,55.749,379.004,58.797,381.527,58.797z"/>
	<path fill="#008BD5" d="M395.139,50.125c0-8.515,1.891-15.033,11.721-15.033c10.406,0,11.721,6.361,11.721,14.875
		c0,8.515-1.893,15.033-11.721,15.033C396.451,65,395.139,58.64,395.139,50.125z M406.91,40.664c-2.521,0-3.258,2.47-3.258,9.356
		c0,6.938,0.736,9.409,3.258,9.409c2.629,0,3.154-2.366,3.154-9.356C410.064,43.029,409.539,40.664,406.91,40.664z"/>
	<path fill="#008BD5" d="M420.891,44.554c0.053-3.89,1.209-6.254,3.205-7.621c1.998-1.367,4.416-1.84,7.938-1.84
		c6.99,0,10.092,2.418,10.092,8.41v14.612c0,2.155,0,4.888,0.998,6.149h-8.199c-0.314-0.998-0.42-2.154-0.473-3.259h-0.105
		C433.189,63.528,430.508,65,427.67,65c-4.783,0-7.568-2.523-7.568-8.673c0-3.311,1.367-6.096,3.469-7.253
		c2.104-1.156,5.256-1.682,7.621-2.313c2.576-0.683,3.049-1.104,3.049-3.259c0-1.734-0.787-2.838-2.68-2.838
		c-2.367,0-3.049,1.419-3.102,3.89H420.891z M430.771,59.113c1.787,0,3.416-1.051,3.416-3.889c0-2.366,0.053-3.837,0.053-4.993
		c-2.68,1.419-3.836,1.471-4.625,2.103c-0.895,0.683-1.314,1.576-1.314,3.153C428.301,57.746,429.193,59.113,430.771,59.113z"/>
	<path fill="#008BD5" d="M446.012,35.829h8.199v3.995h0.105c1.104-2.524,3.258-4.731,6.832-4.731c0.42,0,0.842,0,1.367,0.106v7.989
		c-0.842-0.158-1.525-0.21-2.365-0.21c-3.416,0-5.625,1.418-5.625,5.15v16.136h-8.514V35.829z"/>
	<path fill="#008BD5" d="M477.861,60.795h-0.104c-0.633,1.944-2.367,4.205-6.15,4.205c-5.729,0-8.777-4.1-8.777-14.717
		c0-8.83,1.262-15.191,8.252-15.191c2.365,0,4.941,0.789,6.359,3.837h0.105V26.736h8.514v37.527h-8.199V60.795z M474.604,41.295
		c-3.102,0-3.26,3.417-3.26,8.567c0,4.573,0.105,8.935,3.313,8.935c2.523,0,3.047-3.049,3.047-8.567
		C477.703,45.184,477.494,41.295,474.604,41.295z"/>
</g>
</svg>
